<?xml version="1.0" standalone="no"?>
<!DOCTYPE svg PUBLIC "-//W3C//DTD SVG 20010904//EN"
 "http://www.w3.org/TR/2001/REC-SVG-20010904/DTD/svg10.dtd">
<svg version="1.0" xmlns="http://www.w3.org/2000/svg"
 width="192.000000pt" height="192.000000pt" viewBox="0 0 192.000000 192.000000"
 preserveAspectRatio="xMidYMid meet">
<metadata>
Created by potrace 1.16, written by Peter Selinger 2001-2019
</metadata>
<g transform="translate(0.000000,192.000000) scale(0.100000,-0.100000)"
fill="#000000" stroke="none">
<path d="M1675 1485 c46 -60 117 -208 140 -290 22 -80 31 -297 16 -377 -67
-353 -311 -617 -656 -711 -115 -31 -316 -31 -433 1 -327 88 -569 338 -648 668
-22 92 -22 286 0 378 22 91 67 203 111 274 26 42 29 49 10 27 -27 -31 -105
-182 -105 -203 0 -7 -4 -12 -10 -12 -5 0 -7 -7 -4 -15 4 -8 2 -15 -4 -15 -5 0
-10 -6 -9 -12 1 -45 -4 -69 -14 -62 -9 5 -10 -4 -5 -32 4 -26 3 -34 -3 -25
-14 21 -25 -125 -18 -234 23 -333 239 -639 547 -772 128 -55 217 -73 370 -73
153 0 242 18 370 73 328 142 548 476 550 835 0 94 -17 221 -32 240 -6 6 -7 12
-3 12 4 0 2 7 -5 15 -6 8 -9 19 -5 25 3 5 1 10 -5 10 -7 0 -10 7 -6 15 3 8 2
15 -2 15 -4 0 -18 27 -30 60 -25 64 -107 195 -137 220 -10 8 -1 -7 20 -35z"/>
</g>
</svg>
